<svg width="50" height="50" viewBox="0 0 50 50" fill="none" xmlns="http://www.w3.org/2000/svg">
<path d="M0.5 0.5H49.5V49.5H0.5V0.5Z" fill="#53A9DA" stroke="black"/>
<path d="M22.3047 30.2031C21.7773 30.8346 21.0319 31.3262 20.0684 31.6777C19.1048 32.0228 18.0371 32.1953 16.8652 32.1953C15.6348 32.1953 14.554 31.9284 13.623 31.3945C12.6986 30.8542 11.9824 30.0729 11.4746 29.0508C10.9733 28.0286 10.7161 26.8275 10.7031 25.4473V24.4805C10.7031 23.0612 10.9408 21.834 11.416 20.7988C11.8978 19.7572 12.5879 18.9629 13.4863 18.416C14.3913 17.8626 15.4492 17.5859 16.6602 17.5859C18.3464 17.5859 19.6647 17.9896 20.6152 18.7969C21.5658 19.5977 22.1289 20.7663 22.3047 22.3027H19.4531C19.3229 21.4889 19.0332 20.8932 18.584 20.5156C18.1413 20.138 17.5293 19.9492 16.748 19.9492C15.752 19.9492 14.9935 20.3236 14.4727 21.0723C13.9518 21.821 13.6882 22.9342 13.6816 24.4121V25.3203C13.6816 26.8112 13.9648 27.9375 14.5312 28.6992C15.0977 29.4609 15.9277 29.8418 17.0215 29.8418C18.1217 29.8418 18.9062 29.6074 19.375 29.1387V26.6875H16.709V24.5293H22.3047V30.2031ZM27.8027 32H24.873V17.7812H27.8027V32ZM39.082 26.1895H33.457V32H30.5273V17.7812H39.7852V20.1543H33.457V23.8262H39.082V26.1895Z" fill="#1F1F1F"/>
<path d="M22.3047 30.2031L23.0723 30.8441L23.3047 30.5657V30.2031H22.3047ZM20.0684 31.6777L20.4055 32.6192L20.4111 32.6172L20.0684 31.6777ZM13.623 31.3945L13.1184 32.2579L13.1256 32.262L13.623 31.3945ZM11.4746 29.0508L10.5768 29.4911L10.579 29.4957L11.4746 29.0508ZM10.7031 25.4473L9.70308 25.4473L9.70317 25.4567L10.7031 25.4473ZM11.416 20.7988L10.5084 20.379L10.5072 20.3816L11.416 20.7988ZM13.4863 18.416L14.0063 19.2702L14.008 19.2691L13.4863 18.416ZM20.6152 18.7969L19.9679 19.5591L19.9709 19.5617L20.6152 18.7969ZM22.3047 22.3027V23.3027H23.4256L23.2982 22.1891L22.3047 22.3027ZM19.4531 22.3027L18.4657 22.4607L18.6004 23.3027H19.4531V22.3027ZM18.584 20.5156L17.935 21.2765L17.9405 21.2811L18.584 20.5156ZM14.4727 21.0723L13.6518 20.5012L14.4727 21.0723ZM13.6816 24.4121L12.6816 24.4077V24.4121H13.6816ZM19.375 29.1387L20.0821 29.8458L20.375 29.5529V29.1387H19.375ZM19.375 26.6875H20.375V25.6875H19.375V26.6875ZM16.709 26.6875H15.709V27.6875H16.709V26.6875ZM16.709 24.5293V23.5293H15.709V24.5293H16.709ZM22.3047 24.5293H23.3047V23.5293H22.3047V24.5293ZM21.5371 29.5622C21.1473 30.029 20.5641 30.4324 19.7256 30.7383L20.4111 32.6172C21.4997 32.22 22.4074 31.6403 23.0723 30.8441L21.5371 29.5622ZM19.7312 30.7363C18.8903 31.0374 17.9386 31.1953 16.8652 31.1953V33.1953C18.1356 33.1953 19.3193 33.0082 20.4055 32.6192L19.7312 30.7363ZM16.8652 31.1953C15.7834 31.1953 14.879 30.962 14.1205 30.527L13.1256 32.262C14.229 32.8948 15.4862 33.1953 16.8652 33.1953V31.1953ZM14.1277 30.5312C13.3828 30.0958 12.7972 29.4654 12.3702 28.6059L10.579 29.4957C11.1676 30.6804 12.0144 31.6125 13.1184 32.2579L14.1277 30.5312ZM12.3724 28.6104C11.9494 27.748 11.715 26.6998 11.7031 25.4378L9.70317 25.4567C9.71731 26.9551 9.99717 28.3093 10.5768 29.4911L12.3724 28.6104ZM11.7031 25.4473V24.4805H9.70312V25.4473H11.7031ZM11.7031 24.4805C11.7031 23.1708 11.9225 22.0923 12.3248 21.2161L10.5072 20.3816C9.95898 21.5757 9.70312 22.9516 9.70312 24.4805H11.7031ZM12.3236 21.2186C12.7301 20.3398 13.2927 19.7045 14.0063 19.2702L12.9664 17.5618C11.883 18.2212 11.0655 19.1745 10.5084 20.3791L12.3236 21.2186ZM14.008 19.2691C14.7346 18.8248 15.6067 18.5859 16.6602 18.5859V16.5859C15.2917 16.5859 14.0479 16.9004 12.9646 17.5629L14.008 19.2691ZM16.6602 18.5859C18.193 18.5859 19.2531 18.952 19.9679 19.5591L21.2626 18.0347C20.0763 17.0272 18.4997 16.5859 16.6602 16.5859V18.5859ZM19.9709 19.5617C20.6813 20.1601 21.157 21.0686 21.3112 22.4164L23.2982 22.1891C23.1008 20.4639 22.4502 19.0352 21.2595 18.0321L19.9709 19.5617ZM22.3047 21.3027H19.4531V23.3027H22.3047V21.3027ZM20.4406 22.1447C20.2876 21.1889 19.923 20.3348 19.2274 19.7501L17.9405 21.2811C18.1435 21.4517 18.3582 21.7889 18.4657 22.4607L20.4406 22.1447ZM19.2329 19.7548C18.5553 19.1768 17.6851 18.9492 16.748 18.9492V20.9492C17.3735 20.9492 17.7273 21.0992 17.935 21.2765L19.2329 19.7548ZM16.748 18.9492C15.46 18.9492 14.3789 19.456 13.6518 20.5012L15.2936 21.6433C15.6081 21.1911 16.0439 20.9492 16.748 20.9492V18.9492ZM13.6518 20.5012C12.9635 21.4905 12.6885 22.8419 12.6817 24.4077L14.6816 24.4165C14.6878 23.0266 14.9401 22.1514 15.2936 21.6433L13.6518 20.5012ZM12.6816 24.4121V25.3203H14.6816V24.4121H12.6816ZM12.6816 25.3203C12.6816 26.9118 12.9795 28.2883 13.7288 29.2959L15.3337 28.1025C14.9502 27.5867 14.6816 26.7106 14.6816 25.3203H12.6816ZM13.7288 29.2959C14.5144 30.3524 15.6664 30.8418 17.0215 30.8418V28.8418C16.189 28.8418 15.6809 28.5694 15.3337 28.1025L13.7288 29.2959ZM17.0215 30.8418C18.2212 30.8418 19.3344 30.5935 20.0821 29.8458L18.6679 28.4316C18.4781 28.6214 18.0223 28.8418 17.0215 28.8418V30.8418ZM20.375 29.1387V26.6875H18.375V29.1387H20.375ZM19.375 25.6875H16.709V27.6875H19.375V25.6875ZM17.709 26.6875V24.5293H15.709V26.6875H17.709ZM16.709 25.5293H22.3047V23.5293H16.709V25.5293ZM21.3047 24.5293V30.2031H23.3047V24.5293H21.3047ZM27.8027 32V33H28.8027V32H27.8027ZM24.873 32H23.873V33H24.873V32ZM24.873 17.7812V16.7812H23.873V17.7812H24.873ZM27.8027 17.7812H28.8027V16.7812H27.8027V17.7812ZM27.8027 31H24.873V33H27.8027V31ZM25.873 32V17.7812H23.873V32H25.873ZM24.873 18.7812H27.8027V16.7812H24.873V18.7812ZM26.8027 17.7812V32H28.8027V17.7812H26.8027ZM39.082 26.1895V27.1895H40.082V26.1895H39.082ZM33.457 26.1895V25.1895H32.457V26.1895H33.457ZM33.457 32V33H34.457V32H33.457ZM30.5273 32H29.5273V33H30.5273V32ZM30.5273 17.7812V16.7812H29.5273V17.7812H30.5273ZM39.7852 17.7812H40.7852V16.7812H39.7852V17.7812ZM39.7852 20.1543V21.1543H40.7852V20.1543H39.7852ZM33.457 20.1543V19.1543H32.457V20.1543H33.457ZM33.457 23.8262H32.457V24.8262H33.457V23.8262ZM39.082 23.8262H40.082V22.8262H39.082V23.8262ZM39.082 25.1895H33.457V27.1895H39.082V25.1895ZM32.457 26.1895V32H34.457V26.1895H32.457ZM33.457 31H30.5273V33H33.457V31ZM31.5273 32V17.7812H29.5273V32H31.5273ZM30.5273 18.7812H39.7852V16.7812H30.5273V18.7812ZM38.7852 17.7812V20.1543H40.7852V17.7812H38.7852ZM39.7852 19.1543H33.457V21.1543H39.7852V19.1543ZM32.457 20.1543V23.8262H34.457V20.1543H32.457ZM33.457 24.8262H39.082V22.8262H33.457V24.8262ZM38.082 23.8262V26.1895H40.082V23.8262H38.082Z" fill="#F1F1F1"/>
<path d="M13.8438 10H12.9648V5.73438H13.8438V10ZM18.1299 10H17.251L15.54 7.19336V10H14.6611V5.73438H15.54L17.2539 8.54688V5.73438H18.1299V10ZM21.1094 8.88086C21.1094 8.71484 21.0508 8.58789 20.9336 8.5C20.8164 8.41016 20.6055 8.31641 20.3008 8.21875C19.9961 8.11914 19.7549 8.02148 19.5771 7.92578C19.0928 7.66406 18.8506 7.31152 18.8506 6.86816C18.8506 6.6377 18.915 6.43262 19.0439 6.25293C19.1748 6.07129 19.3613 5.92969 19.6035 5.82812C19.8477 5.72656 20.1211 5.67578 20.4238 5.67578C20.7285 5.67578 21 5.73145 21.2383 5.84277C21.4766 5.95215 21.6611 6.10742 21.792 6.30859C21.9248 6.50977 21.9912 6.73828 21.9912 6.99414H21.1123C21.1123 6.79883 21.0508 6.64746 20.9277 6.54004C20.8047 6.43066 20.6318 6.37598 20.4092 6.37598C20.1943 6.37598 20.0273 6.42188 19.9082 6.51367C19.7891 6.60352 19.7295 6.72266 19.7295 6.87109C19.7295 7.00977 19.7988 7.12598 19.9375 7.21973C20.0781 7.31348 20.2842 7.40137 20.5557 7.4834C21.0557 7.63379 21.4199 7.82031 21.6484 8.04297C21.877 8.26562 21.9912 8.54297 21.9912 8.875C21.9912 9.24414 21.8516 9.53418 21.5723 9.74512C21.293 9.9541 20.917 10.0586 20.4443 10.0586C20.1162 10.0586 19.8174 9.99902 19.5479 9.87988C19.2783 9.75879 19.0723 9.59375 18.9297 9.38477C18.7891 9.17578 18.7188 8.93359 18.7188 8.6582H19.6006C19.6006 9.12891 19.8818 9.36426 20.4443 9.36426C20.6533 9.36426 20.8164 9.32227 20.9336 9.23828C21.0508 9.15234 21.1094 9.0332 21.1094 8.88086ZM25.7998 6.44629H24.4932V10H23.6143V6.44629H22.3252V5.73438H25.7998V6.44629ZM28.3604 9.12109H26.8193L26.5264 10H25.5918L27.1797 5.73438H27.9941L29.5908 10H28.6562L28.3604 9.12109ZM27.0566 8.40918H28.123L27.5869 6.8125L27.0566 8.40918ZM33.458 10H32.5791L30.8682 7.19336V10H29.9893V5.73438H30.8682L32.582 8.54688V5.73438H33.458V10ZM37.3486 6.44629H36.042V10H35.1631V6.44629H33.874V5.73438H37.3486V6.44629Z" fill="#1F1F1F"/>
<path d="M13.8438 10V10.5H14.3438V10H13.8438ZM12.9648 10H12.4648V10.5H12.9648V10ZM12.9648 5.73438V5.23438H12.4648V5.73438H12.9648ZM13.8438 5.73438H14.3438V5.23438H13.8438V5.73438ZM13.8438 9.5H12.9648V10.5H13.8438V9.5ZM13.4648 10V5.73438H12.4648V10H13.4648ZM12.9648 6.23438H13.8438V5.23438H12.9648V6.23438ZM13.3438 5.73438V10H14.3438V5.73438H13.3438ZM18.1299 10V10.5H18.6299V10H18.1299ZM17.251 10L16.824 10.2603L16.9702 10.5H17.251V10ZM15.54 7.19336L15.967 6.9331L15.04 5.41256V7.19336H15.54ZM15.54 10V10.5H16.04V10H15.54ZM14.6611 10H14.1611V10.5H14.6611V10ZM14.6611 5.73438V5.23438H14.1611V5.73438H14.6611ZM15.54 5.73438L15.967 5.47419L15.8209 5.23438H15.54V5.73438ZM17.2539 8.54688L16.8269 8.80706L17.7539 10.3282V8.54688H17.2539ZM17.2539 5.73438V5.23438H16.7539V5.73438H17.2539ZM18.1299 5.73438H18.6299V5.23438H18.1299V5.73438ZM18.1299 9.5H17.251V10.5H18.1299V9.5ZM17.6779 9.73974L15.967 6.9331L15.1131 7.45362L16.824 10.2603L17.6779 9.73974ZM15.04 7.19336V10H16.04V7.19336H15.04ZM15.54 9.5H14.6611V10.5H15.54V9.5ZM15.1611 10V5.73438H14.1611V10H15.1611ZM14.6611 6.23438H15.54V5.23438H14.6611V6.23438ZM15.1131 5.99456L16.8269 8.80706L17.6809 8.28669L15.967 5.47419L15.1131 5.99456ZM17.7539 8.54688V5.73438H16.7539V8.54688H17.7539ZM17.2539 6.23438H18.1299V5.23438H17.2539V6.23438ZM17.6299 5.73438V10H18.6299V5.73438H17.6299ZM20.9336 8.5L20.6294 8.89683L20.6336 8.9L20.9336 8.5ZM20.3008 8.21875L20.1454 8.69401L20.1482 8.69489L20.3008 8.21875ZM19.5771 7.92578L19.3395 8.36568L19.3401 8.36602L19.5771 7.92578ZM19.0439 6.25293L18.6383 5.96066L18.6377 5.96148L19.0439 6.25293ZM19.6035 5.82812L19.4115 5.36648L19.4102 5.36703L19.6035 5.82812ZM21.2383 5.84277L21.0266 6.29578L21.0297 6.29719L21.2383 5.84277ZM21.792 6.30859L21.3729 6.58124L21.3747 6.58407L21.792 6.30859ZM21.9912 6.99414V7.49414H22.4912V6.99414H21.9912ZM21.1123 6.99414H20.6123V7.49414H21.1123V6.99414ZM20.9277 6.54004L20.5955 6.91376L20.5989 6.9167L20.9277 6.54004ZM19.9082 6.51367L20.2093 6.91291L20.2134 6.90974L19.9082 6.51367ZM19.9375 7.21973L19.6575 7.63396L19.6601 7.63575L19.9375 7.21973ZM20.5557 7.4834L20.411 7.96203L20.4116 7.96221L20.5557 7.4834ZM21.5723 9.74512L21.8718 10.1455L21.8736 10.1441L21.5723 9.74512ZM19.5479 9.87988L19.3429 10.336L19.3457 10.3372L19.5479 9.87988ZM18.9297 9.38477L18.5149 9.66391L18.5167 9.66655L18.9297 9.38477ZM18.7188 8.6582V8.1582H18.2188V8.6582H18.7188ZM19.6006 8.6582H20.1006V8.1582H19.6006V8.6582ZM20.9336 9.23828L21.2249 9.64471L21.2293 9.64148L20.9336 9.23828ZM21.6094 8.88086C21.6094 8.58147 21.4947 8.29585 21.2336 8.1L20.6336 8.9C20.6324 8.89912 20.6284 8.89588 20.6235 8.88986C20.6185 8.88375 20.6144 8.87702 20.6114 8.87066C20.6053 8.85729 20.6094 8.85681 20.6094 8.88086H21.6094ZM21.2378 8.1032C21.047 7.95694 20.7641 7.84219 20.4534 7.74261L20.1482 8.69489C20.4469 8.79062 20.5858 8.86337 20.6294 8.8968L21.2378 8.1032ZM20.4562 7.7435C20.1653 7.64842 19.9552 7.56148 19.8142 7.48555L19.3401 8.36602C19.5546 8.48149 19.8269 8.58986 20.1454 8.694L20.4562 7.7435ZM19.8148 7.48589C19.4459 7.28653 19.3506 7.08071 19.3506 6.86816H18.3506C18.3506 7.54234 18.7397 8.0416 19.3395 8.36567L19.8148 7.48589ZM19.3506 6.86816C19.3506 6.73756 19.3849 6.63537 19.4502 6.54438L18.6377 5.96148C18.4451 6.22986 18.3506 6.53783 18.3506 6.86816H19.3506ZM19.4496 6.5452C19.5179 6.45043 19.6248 6.3614 19.7969 6.28922L19.4102 5.36703C19.0979 5.49798 18.8317 5.69214 18.6383 5.96066L19.4496 6.5452ZM19.7956 6.28977C19.9707 6.21693 20.1775 6.17578 20.4238 6.17578V5.17578C20.0647 5.17578 19.7247 5.23619 19.4115 5.36648L19.7956 6.28977ZM20.4238 6.17578C20.6669 6.17578 20.8643 6.21994 21.0266 6.29577L21.4499 5.38978C21.1357 5.24295 20.7901 5.17578 20.4238 5.17578V6.17578ZM21.0297 6.29719C21.1903 6.37089 21.2983 6.46663 21.3729 6.58123L22.2111 6.03596C22.0239 5.74822 21.7629 5.5334 21.4469 5.38836L21.0297 6.29719ZM21.3747 6.58407C21.4502 6.69838 21.4912 6.82991 21.4912 6.99414H22.4912C22.4912 6.64665 22.3994 6.32115 22.2093 6.03312L21.3747 6.58407ZM21.9912 6.49414H21.1123V7.49414H21.9912V6.49414ZM21.6123 6.99414C21.6123 6.68541 21.5097 6.38438 21.2566 6.16338L20.5989 6.9167C20.6001 6.91776 20.6008 6.91845 20.6011 6.91876C20.6012 6.91892 20.6013 6.91903 20.6013 6.91908C20.6014 6.91913 20.6014 6.91916 20.6014 6.91917C20.6014 6.91919 20.6014 6.91922 20.6015 6.91928C20.6015 6.91933 20.6016 6.91946 20.6017 6.91966C20.6019 6.92003 20.6023 6.92089 20.603 6.9224C20.6052 6.92783 20.6123 6.94869 20.6123 6.99414H21.6123ZM21.2599 6.16633C21.0173 5.95067 20.7107 5.87598 20.4092 5.87598V6.87598C20.553 6.87598 20.5921 6.91066 20.5956 6.91374L21.2599 6.16633ZM20.4092 5.87598C20.1299 5.87598 19.8401 5.93491 19.603 6.1176L20.2134 6.90974C20.2145 6.90884 20.2588 6.87598 20.4092 6.87598V5.87598ZM19.6072 6.11446C19.3635 6.29819 19.2295 6.56476 19.2295 6.87109H20.2295C20.2295 6.86753 20.2298 6.86888 20.2287 6.87391C20.2275 6.87915 20.2253 6.88625 20.2214 6.89402C20.2175 6.90178 20.2133 6.9077 20.21 6.9115C20.2069 6.91515 20.206 6.91537 20.2092 6.91289L19.6072 6.11446ZM19.2295 6.87109C19.2295 7.2116 19.4138 7.46923 19.6575 7.63395L20.2175 6.80551C20.1949 6.79021 20.2001 6.78808 20.2109 6.80607C20.2163 6.81509 20.2214 6.82656 20.225 6.83964C20.2285 6.85265 20.2295 6.86365 20.2295 6.87109H19.2295ZM19.6601 7.63575C19.8601 7.76904 20.1198 7.87401 20.411 7.96203L20.7003 7.00477C20.4486 6.92872 20.2962 6.85791 20.2149 6.8037L19.6601 7.63575ZM20.4116 7.96221C20.8781 8.10251 21.1541 8.25941 21.2995 8.40108L21.9974 7.68485C21.6857 7.38122 21.2332 7.16507 20.6997 7.00459L20.4116 7.96221ZM21.2995 8.40108C21.4271 8.52542 21.4912 8.67168 21.4912 8.875H22.4912C22.4912 8.41425 22.3268 8.00583 21.9974 7.68485L21.2995 8.40108ZM21.4912 8.875C21.4912 9.09735 21.4173 9.23555 21.2709 9.34612L21.8736 10.1441C22.2858 9.83281 22.4912 9.39093 22.4912 8.875H21.4912ZM21.2727 9.34478C21.1059 9.46957 20.8468 9.55859 20.4443 9.55859V10.5586C20.9871 10.5586 21.48 10.4386 21.8718 10.1455L21.2727 9.34478ZM20.4443 9.55859C20.1779 9.55859 19.949 9.51052 19.75 9.42257L19.3457 10.3372C19.6858 10.4875 20.0545 10.5586 20.4443 10.5586V9.55859ZM19.7528 9.4238C19.553 9.33406 19.4251 9.22376 19.3427 9.10298L18.5167 9.66655C18.7194 9.96374 19.0036 10.1835 19.3429 10.336L19.7528 9.4238ZM19.3445 9.10563C19.2646 8.98684 19.2188 8.84384 19.2188 8.6582H18.2188C18.2188 9.02335 18.3135 9.36473 18.5149 9.6639L19.3445 9.10563ZM18.7188 9.1582H19.6006V8.1582H18.7188V9.1582ZM19.1006 8.6582C19.1006 8.99634 19.2058 9.33288 19.4906 9.5712C19.7584 9.79524 20.1056 9.86426 20.4443 9.86426V8.86426C20.2206 8.86426 20.1459 8.8156 20.1324 8.80429C20.128 8.80063 20.1235 8.7962 20.1178 8.78207C20.111 8.76489 20.1006 8.72713 20.1006 8.6582H19.1006ZM20.4443 9.86426C20.7128 9.86426 20.9923 9.81135 21.2249 9.64469L20.6423 8.83187C20.6405 8.83318 20.5938 8.86426 20.4443 8.86426V9.86426ZM21.2293 9.64148C21.482 9.45614 21.6094 9.18343 21.6094 8.88086H20.6094C20.6094 8.89182 20.6076 8.88237 20.6168 8.86381C20.621 8.85528 20.626 8.84789 20.6309 8.84221C20.6356 8.83667 20.6387 8.83453 20.6379 8.83508L21.2293 9.64148ZM25.7998 6.44629V6.94629H26.2998V6.44629H25.7998ZM24.4932 6.44629V5.94629H23.9932V6.44629H24.4932ZM24.4932 10V10.5H24.9932V10H24.4932ZM23.6143 10H23.1143V10.5H23.6143V10ZM23.6143 6.44629H24.1143V5.94629H23.6143V6.44629ZM22.3252 6.44629H21.8252V6.94629H22.3252V6.44629ZM22.3252 5.73438V5.23438H21.8252V5.73438H22.3252ZM25.7998 5.73438H26.2998V5.23438H25.7998V5.73438ZM25.7998 5.94629H24.4932V6.94629H25.7998V5.94629ZM23.9932 6.44629V10H24.9932V6.44629H23.9932ZM24.4932 9.5H23.6143V10.5H24.4932V9.5ZM24.1143 10V6.44629H23.1143V10H24.1143ZM23.6143 5.94629H22.3252V6.94629H23.6143V5.94629ZM22.8252 6.44629V5.73438H21.8252V6.44629H22.8252ZM22.3252 6.23438H25.7998V5.23438H22.3252V6.23438ZM25.2998 5.73438V6.44629H26.2998V5.73438H25.2998ZM28.3604 9.12109L28.8342 8.96156L28.7196 8.62109H28.3604V9.12109ZM26.8193 9.12109V8.62109H26.459L26.345 8.96298L26.8193 9.12109ZM26.5264 10V10.5H26.8867L27.0007 10.1581L26.5264 10ZM25.5918 10L25.1232 9.82557L24.8722 10.5H25.5918V10ZM27.1797 5.73438V5.23438H26.8323L26.7111 5.55994L27.1797 5.73438ZM27.9941 5.73438L28.4624 5.5591L28.3409 5.23438H27.9941V5.73438ZM29.5908 10V10.5H30.3119L30.0591 9.82472L29.5908 10ZM28.6562 10L28.1824 10.1595L28.297 10.5H28.6562V10ZM27.0566 8.40918L26.5821 8.25159L26.3637 8.90918H27.0566V8.40918ZM28.123 8.40918V8.90918H28.8184L28.597 8.25002L28.123 8.40918ZM27.5869 6.8125L28.0609 6.65334L27.5843 5.23397L27.1124 6.65491L27.5869 6.8125ZM28.3604 8.62109H26.8193V9.62109H28.3604V8.62109ZM26.345 8.96298L26.052 9.84189L27.0007 10.1581L27.2937 9.27921L26.345 8.96298ZM26.5264 9.5H25.5918V10.5H26.5264V9.5ZM26.0604 10.1744L27.6483 5.90881L26.7111 5.55994L25.1232 9.82557L26.0604 10.1744ZM27.1797 6.23438H27.9941V5.23438H27.1797V6.23438ZM27.5259 5.90965L29.1226 10.1753L30.0591 9.82472L28.4624 5.5591L27.5259 5.90965ZM29.5908 9.5H28.6562V10.5H29.5908V9.5ZM29.1301 9.84047L28.8342 8.96156L27.8865 9.28063L28.1824 10.1595L29.1301 9.84047ZM27.0566 8.90918H28.123V7.90918H27.0566V8.90918ZM28.597 8.25002L28.0609 6.65334L27.1129 6.97166L27.6491 8.56834L28.597 8.25002ZM27.1124 6.65491L26.5821 8.25159L27.5312 8.56677L28.0614 6.97009L27.1124 6.65491ZM33.458 10V10.5H33.958V10H33.458ZM32.5791 10L32.1522 10.2603L32.2983 10.5H32.5791V10ZM30.8682 7.19336L31.2951 6.9331L30.3682 5.41256V7.19336H30.8682ZM30.8682 10V10.5H31.3682V10H30.8682ZM29.9893 10H29.4893V10.5H29.9893V10ZM29.9893 5.73438V5.23438H29.4893V5.73438H29.9893ZM30.8682 5.73438L31.2951 5.47419L31.149 5.23438H30.8682V5.73438ZM32.582 8.54688L32.1551 8.80706L33.082 10.3282V8.54688H32.582ZM32.582 5.73438V5.23438H32.082V5.73438H32.582ZM33.458 5.73438H33.958V5.23438H33.458V5.73438ZM33.458 9.5H32.5791V10.5H33.458V9.5ZM33.006 9.73974L31.2951 6.9331L30.4412 7.45362L32.1522 10.2603L33.006 9.73974ZM30.3682 7.19336V10H31.3682V7.19336H30.3682ZM30.8682 9.5H29.9893V10.5H30.8682V9.5ZM30.4893 10V5.73438H29.4893V10H30.4893ZM29.9893 6.23438H30.8682V5.23438H29.9893V6.23438ZM30.4412 5.99456L32.1551 8.80706L33.009 8.28669L31.2951 5.47419L30.4412 5.99456ZM33.082 8.54688V5.73438H32.082V8.54688H33.082ZM32.582 6.23438H33.458V5.23438H32.582V6.23438ZM32.958 5.73438V10H33.958V5.73438H32.958ZM37.3486 6.44629V6.94629H37.8486V6.44629H37.3486ZM36.042 6.44629V5.94629H35.542V6.44629H36.042ZM36.042 10V10.5H36.542V10H36.042ZM35.1631 10H34.6631V10.5H35.1631V10ZM35.1631 6.44629H35.6631V5.94629H35.1631V6.44629ZM33.874 6.44629H33.374V6.94629H33.874V6.44629ZM33.874 5.73438V5.23438H33.374V5.73438H33.874ZM37.3486 5.73438H37.8486V5.23438H37.3486V5.73438ZM37.3486 5.94629H36.042V6.94629H37.3486V5.94629ZM35.542 6.44629V10H36.542V6.44629H35.542ZM36.042 9.5H35.1631V10.5H36.042V9.5ZM35.6631 10V6.44629H34.6631V10H35.6631ZM35.1631 5.94629H33.874V6.94629H35.1631V5.94629ZM34.374 6.44629V5.73438H33.374V6.44629H34.374ZM33.874 6.23438H37.3486V5.23438H33.874V6.23438ZM36.8486 5.73438V6.44629H37.8486V5.73438H36.8486Z" fill="#F1F1F1"/>
<path d="M11.623 43.5791C11.5898 44.0381 11.4199 44.3994 11.1133 44.6631C10.8086 44.9268 10.4062 45.0586 9.90625 45.0586C9.35938 45.0586 8.92871 44.875 8.61426 44.5078C8.30176 44.1387 8.14551 43.6328 8.14551 42.9902V42.7295C8.14551 42.3193 8.21777 41.958 8.3623 41.6455C8.50684 41.333 8.71289 41.0938 8.98047 40.9277C9.25 40.7598 9.5625 40.6758 9.91797 40.6758C10.4102 40.6758 10.8066 40.8076 11.1074 41.0713C11.4082 41.335 11.582 41.7051 11.6289 42.1816H10.75C10.7285 41.9062 10.6514 41.707 10.5186 41.584C10.3877 41.459 10.1875 41.3965 9.91797 41.3965C9.625 41.3965 9.40527 41.502 9.25879 41.7129C9.11426 41.9219 9.04004 42.2471 9.03613 42.6885V43.0107C9.03613 43.4717 9.10547 43.8086 9.24414 44.0215C9.38477 44.2344 9.60547 44.3408 9.90625 44.3408C10.1777 44.3408 10.3799 44.2793 10.5127 44.1562C10.6475 44.0312 10.7246 43.8389 10.7441 43.5791H11.623ZM15.7041 42.9639C15.7041 43.3838 15.6299 43.752 15.4814 44.0684C15.333 44.3848 15.1201 44.6289 14.8428 44.8008C14.5674 44.9727 14.251 45.0586 13.8936 45.0586C13.54 45.0586 13.2246 44.9736 12.9473 44.8037C12.6699 44.6338 12.4551 44.3916 12.3027 44.0771C12.1504 43.7607 12.0732 43.3975 12.0713 42.9873V42.7764C12.0713 42.3564 12.1465 41.9873 12.2969 41.6689C12.4492 41.3486 12.6631 41.1035 12.9385 40.9336C13.2158 40.7617 13.5322 40.6758 13.8877 40.6758C14.2432 40.6758 14.5586 40.7617 14.834 40.9336C15.1113 41.1035 15.3252 41.3486 15.4756 41.6689C15.6279 41.9873 15.7041 42.3555 15.7041 42.7734V42.9639ZM14.8135 42.7705C14.8135 42.3232 14.7334 41.9834 14.5732 41.751C14.4131 41.5186 14.1846 41.4023 13.8877 41.4023C13.5928 41.4023 13.3652 41.5176 13.2051 41.748C13.0449 41.9766 12.9639 42.3125 12.9619 42.7559V42.9639C12.9619 43.3994 13.042 43.7373 13.2021 43.9775C13.3623 44.2178 13.5928 44.3379 13.8936 44.3379C14.1885 44.3379 14.415 44.2227 14.5732 43.9922C14.7314 43.7598 14.8115 43.4219 14.8135 42.9785V42.7705ZM19.8115 45H18.9326L17.2217 42.1934V45H16.3428V40.7344H17.2217L18.9355 43.5469V40.7344H19.8115V45ZM22.1553 43.9424L23.1221 40.7344H24.1006L22.6152 45H21.6982L20.2188 40.7344H21.1943L22.1553 43.9424ZM27.0713 43.1514H25.3838V44.2939H27.3643V45H24.5049V40.7344H27.3584V41.4463H25.3838V42.4629H27.0713V43.1514ZM29.459 43.4385H28.7588V45H27.8799V40.7344H29.4648C29.9688 40.7344 30.3574 40.8467 30.6309 41.0713C30.9043 41.2959 31.041 41.6133 31.041 42.0234C31.041 42.3145 30.9775 42.5576 30.8506 42.7529C30.7256 42.9463 30.5352 43.1006 30.2793 43.2158L31.2021 44.959V45H30.2588L29.459 43.4385ZM28.7588 42.7266H29.4678C29.6885 42.7266 29.8594 42.6709 29.9805 42.5596C30.1016 42.4463 30.1621 42.291 30.1621 42.0938C30.1621 41.8926 30.1045 41.7344 29.9893 41.6191C29.876 41.5039 29.7012 41.4463 29.4648 41.4463H28.7588V42.7266ZM34.7764 41.4463H33.4697V45H32.5908V41.4463H31.3018V40.7344H34.7764V41.4463ZM37.8467 43.1514H36.1592V44.2939H38.1396V45H35.2803V40.7344H38.1338V41.4463H36.1592V42.4629H37.8467V43.1514ZM40.2344 43.4385H39.5342V45H38.6553V40.7344H40.2402C40.7441 40.7344 41.1328 40.8467 41.4062 41.0713C41.6797 41.2959 41.8164 41.6133 41.8164 42.0234C41.8164 42.3145 41.7529 42.5576 41.626 42.7529C41.501 42.9463 41.3105 43.1006 41.0547 43.2158L41.9775 44.959V45H41.0342L40.2344 43.4385ZM39.5342 42.7266H40.2432C40.4639 42.7266 40.6348 42.6709 40.7559 42.5596C40.877 42.4463 40.9375 42.291 40.9375 42.0938C40.9375 41.8926 40.8799 41.7344 40.7646 41.6191C40.6514 41.5039 40.4766 41.4463 40.2402 41.4463H39.5342V42.7266Z" fill="#1F1F1F"/>
<path d="M11.623 43.5791L12.1217 43.6152L12.1605 43.0791H11.623V43.5791ZM11.1133 44.6631L10.7873 44.284L10.7861 44.285L11.1133 44.6631ZM8.61426 44.5078L8.23264 44.8309L8.23449 44.833L8.61426 44.5078ZM8.98047 40.9277L9.24407 41.3526L9.24492 41.3521L8.98047 40.9277ZM11.6289 42.1816V42.6816H12.1805L12.1265 42.1327L11.6289 42.1816ZM10.75 42.1816L10.2515 42.2205L10.2875 42.6816H10.75V42.1816ZM10.5186 41.584L10.1731 41.9456L10.1787 41.9508L10.5186 41.584ZM9.25879 41.7129L8.8481 41.4277L8.84755 41.4285L9.25879 41.7129ZM9.03613 42.6885L8.53613 42.6841V42.6885H9.03613ZM9.24414 44.0215L8.82517 44.2944L8.82694 44.2971L9.24414 44.0215ZM10.5127 44.1562L10.8525 44.523L10.8527 44.5228L10.5127 44.1562ZM10.7441 43.5791V43.0791H10.2803L10.2455 43.5416L10.7441 43.5791ZM11.1244 43.543C11.0993 43.8892 10.9788 44.1193 10.7873 44.284L11.4393 45.0422C11.8611 44.6795 12.0804 44.187 12.1217 43.6152L11.1244 43.543ZM10.7861 44.285C10.5926 44.4524 10.3161 44.5586 9.90625 44.5586V45.5586C10.4964 45.5586 11.0245 45.4011 11.4405 45.0412L10.7861 44.285ZM9.90625 44.5586C9.48399 44.5586 9.20038 44.4235 8.99403 44.1826L8.23449 44.833C8.65704 45.3265 9.23476 45.5586 9.90625 45.5586V44.5586ZM8.99587 44.1848C8.78183 43.9319 8.64551 43.5538 8.64551 42.9902H7.64551C7.64551 43.7119 7.82168 44.3454 8.23264 44.8309L8.99587 44.1848ZM8.64551 42.9902V42.7295H7.64551V42.9902H8.64551ZM8.64551 42.7295C8.64551 42.3781 8.70728 42.0907 8.81612 41.8554L7.90849 41.4356C7.72827 41.8253 7.64551 42.2605 7.64551 42.7295H8.64551ZM8.81612 41.8554C8.92361 41.623 9.06728 41.4623 9.24407 41.3526L8.71686 40.5029C8.35851 40.7252 8.09006 41.043 7.90849 41.4356L8.81612 41.8554ZM9.24492 41.3521C9.4259 41.2393 9.64451 41.1758 9.91797 41.1758V40.1758C9.48049 40.1758 9.0741 40.2802 8.71602 40.5034L9.24492 41.3521ZM9.91797 41.1758C10.318 41.1758 10.588 41.2808 10.7778 41.4473L11.437 40.6953C11.0253 40.3344 10.5023 40.1758 9.91797 40.1758V41.1758ZM10.7778 41.4473C10.9648 41.6112 11.0943 41.854 11.1313 42.2306L12.1265 42.1327C12.0698 41.5562 11.8516 41.0587 11.437 40.6953L10.7778 41.4473ZM11.6289 41.6816H10.75V42.6816H11.6289V41.6816ZM11.2485 42.1428C11.2222 41.8059 11.1216 41.4611 10.8584 41.2172L10.1787 41.9508C10.1811 41.953 10.2348 42.0066 10.2515 42.2205L11.2485 42.1428ZM10.8639 41.2224C10.6032 40.9734 10.2542 40.8965 9.91797 40.8965V41.8965C10.1208 41.8965 10.1722 41.9445 10.1732 41.9455L10.8639 41.2224ZM9.91797 40.8965C9.4879 40.8965 9.1023 41.0617 8.8481 41.4277L9.66947 41.9981C9.70825 41.9423 9.7621 41.8965 9.91797 41.8965V40.8965ZM8.84755 41.4285C8.61776 41.7608 8.54037 42.2078 8.53615 42.6841L9.53611 42.6929C9.53971 42.2864 9.61076 42.083 9.67002 41.9973L8.84755 41.4285ZM8.53613 42.6885V43.0107H9.53613V42.6885H8.53613ZM8.53613 43.0107C8.53613 43.5004 8.60582 43.9576 8.82518 44.2944L9.6631 43.7486C9.60511 43.6596 9.53613 43.4429 9.53613 43.0107H8.53613ZM8.82694 44.2971C9.07777 44.6768 9.47231 44.8408 9.90625 44.8408V43.8408C9.73863 43.8408 9.69176 43.792 9.66134 43.7459L8.82694 44.2971ZM9.90625 44.8408C10.2422 44.8408 10.5903 44.7659 10.8525 44.523L10.1729 43.7895C10.1694 43.7927 10.1132 43.8408 9.90625 43.8408V44.8408ZM10.8527 44.5228C11.1124 44.282 11.2177 43.9497 11.2427 43.6166L10.2455 43.5416C10.2315 43.728 10.1825 43.7805 10.1727 43.7897L10.8527 44.5228ZM10.7441 44.0791H11.623V43.0791H10.7441V44.0791ZM14.8428 44.8008L14.5794 44.3758L14.578 44.3766L14.8428 44.8008ZM12.3027 44.0771L11.8522 44.2941L11.8528 44.2951L12.3027 44.0771ZM12.0713 42.9873L11.5713 42.9873L11.5713 42.9897L12.0713 42.9873ZM12.2969 41.6689L11.8453 41.4542L11.8448 41.4554L12.2969 41.6689ZM12.9385 40.9336L13.201 41.3591L13.2019 41.3586L12.9385 40.9336ZM14.834 40.9336L14.5692 41.3578L14.5728 41.3599L14.834 40.9336ZM15.4756 41.6689L15.023 41.8815L15.0246 41.8848L15.4756 41.6689ZM13.2051 41.748L13.6145 42.035L13.6157 42.0334L13.2051 41.748ZM12.9619 42.7559L12.4619 42.7537V42.7559H12.9619ZM14.5732 43.9922L14.9855 44.2752L14.9866 44.2735L14.5732 43.9922ZM14.8135 42.9785L15.3135 42.9807V42.9785H14.8135ZM15.2041 42.9639C15.2041 43.325 15.1404 43.6181 15.0288 43.856L15.9341 44.2807C16.1194 43.8858 16.2041 43.4426 16.2041 42.9639H15.2041ZM15.0288 43.856C14.9184 44.0912 14.7684 44.2586 14.5794 44.3758L15.1062 45.2258C15.4718 44.9992 15.7476 44.6783 15.9341 44.2807L15.0288 43.856ZM14.578 44.3766C14.39 44.494 14.1672 44.5586 13.8936 44.5586V45.5586C14.3348 45.5586 14.7448 45.4513 15.1075 45.2249L14.578 44.3766ZM13.8936 44.5586C13.6239 44.5586 13.4004 44.495 13.2085 44.3774L12.6861 45.2301C13.0488 45.4523 13.4561 45.5586 13.8936 45.5586V44.5586ZM13.2085 44.3774C13.0188 44.2611 12.8666 44.0942 12.7527 43.8591L11.8528 44.2951C12.0436 44.689 12.3211 45.0064 12.6861 45.2301L13.2085 44.3774ZM12.7532 43.8602C12.6381 43.6211 12.5729 43.3332 12.5713 42.9849L11.5713 42.9897C11.5735 43.4617 11.6627 43.9004 11.8522 44.2941L12.7532 43.8602ZM12.5713 42.9873V42.7764H11.5713V42.9873H12.5713ZM12.5713 42.7764C12.5713 42.4162 12.6356 42.1225 12.749 41.8825L11.8448 41.4554C11.6573 41.8522 11.5713 42.2966 11.5713 42.7764H12.5713ZM12.7484 41.8837C12.8635 41.6417 13.0154 41.4736 13.201 41.3591L12.6759 40.5081C12.3107 40.7334 12.0349 41.0556 11.8453 41.4542L12.7484 41.8837ZM13.2019 41.3586C13.3931 41.2401 13.6167 41.1758 13.8877 41.1758V40.1758C13.4478 40.1758 13.0386 40.2833 12.6751 40.5086L13.2019 41.3586ZM13.8877 41.1758C14.1588 41.1758 14.3807 41.2401 14.5693 41.3578L15.0987 40.5094C14.7364 40.2833 14.3276 40.1758 13.8877 40.1758V41.1758ZM14.5728 41.3599C14.7595 41.4743 14.9103 41.6415 15.023 41.8814L15.9282 41.4564C15.7401 41.0558 15.4632 40.7327 15.0952 40.5072L14.5728 41.3599ZM15.0246 41.8848C15.1393 42.1244 15.2041 42.4165 15.2041 42.7734H16.2041C16.2041 42.2944 16.1166 41.8502 15.9266 41.4531L15.0246 41.8848ZM15.2041 42.7734V42.9639H16.2041V42.7734H15.2041ZM15.3135 42.7705C15.3135 42.2765 15.2273 41.8189 14.985 41.4673L14.1615 42.0347C14.2395 42.1479 14.3135 42.37 14.3135 42.7705H15.3135ZM14.985 41.4673C14.7259 41.0913 14.3389 40.9023 13.8877 40.9023V41.9023C14.0302 41.9023 14.1003 41.9458 14.1615 42.0347L14.985 41.4673ZM13.8877 40.9023C13.4389 40.9023 13.0536 41.0899 12.7945 41.4627L13.6157 42.0334C13.6769 41.9453 13.7467 41.9023 13.8877 41.9023V40.9023ZM12.7956 41.4611C12.5517 41.8091 12.4641 42.2636 12.4619 42.7537L13.4619 42.7581C13.4637 42.3614 13.5381 42.144 13.6145 42.035L12.7956 41.4611ZM12.4619 42.7559V42.9639H13.4619V42.7559H12.4619ZM12.4619 42.9639C12.4619 43.4511 12.5499 43.9006 12.7861 44.2549L13.6182 43.7002C13.534 43.574 13.4619 43.3477 13.4619 42.9639H12.4619ZM12.7861 44.2549C13.0436 44.641 13.434 44.8379 13.8936 44.8379V43.8379C13.7516 43.8379 13.6811 43.7945 13.6182 43.7002L12.7861 44.2549ZM13.8936 44.8379C14.3425 44.8379 14.7281 44.6501 14.9855 44.2752L14.161 43.7092C14.102 43.7952 14.0345 43.8379 13.8936 43.8379V44.8379ZM14.9866 44.2735C15.2246 43.9238 15.3113 43.4708 15.3135 42.9807L14.3135 42.9763C14.3117 43.373 14.2383 43.5957 14.1599 43.7108L14.9866 44.2735ZM15.3135 42.9785V42.7705H14.3135V42.9785H15.3135ZM19.8115 45V45.5H20.3115V45H19.8115ZM18.9326 45L18.5057 45.2603L18.6518 45.5H18.9326V45ZM17.2217 42.1934L17.6486 41.9331L16.7217 40.4126V42.1934H17.2217ZM17.2217 45V45.5H17.7217V45H17.2217ZM16.3428 45H15.8428V45.5H16.3428V45ZM16.3428 40.7344V40.2344H15.8428V40.7344H16.3428ZM17.2217 40.7344L17.6487 40.4742L17.5025 40.2344H17.2217V40.7344ZM18.9355 43.5469L18.5086 43.8071L19.4355 45.3282V43.5469H18.9355ZM18.9355 40.7344V40.2344H18.4355V40.7344H18.9355ZM19.8115 40.7344H20.3115V40.2344H19.8115V40.7344ZM19.8115 44.5H18.9326V45.5H19.8115V44.5ZM19.3595 44.7397L17.6486 41.9331L16.7948 42.4536L18.5057 45.2603L19.3595 44.7397ZM16.7217 42.1934V45H17.7217V42.1934H16.7217ZM17.2217 44.5H16.3428V45.5H17.2217V44.5ZM16.8428 45V40.7344H15.8428V45H16.8428ZM16.3428 41.2344H17.2217V40.2344H16.3428V41.2344ZM16.7947 40.9946L18.5086 43.8071L19.3625 43.2867L17.6487 40.4742L16.7947 40.9946ZM19.4355 43.5469V40.7344H18.4355V43.5469H19.4355ZM18.9355 41.2344H19.8115V40.2344H18.9355V41.2344ZM19.3115 40.7344V45H20.3115V40.7344H19.3115ZM22.1553 43.9424L21.6763 44.0859L22.1538 45.68L22.634 44.0867L22.1553 43.9424ZM23.1221 40.7344V40.2344H22.7505L22.6433 40.5901L23.1221 40.7344ZM24.1006 40.7344L24.5728 40.8988L24.8041 40.2344H24.1006V40.7344ZM22.6152 45V45.5H22.9706L23.0874 45.1644L22.6152 45ZM21.6982 45L21.2258 45.1638L21.3424 45.5H21.6982V45ZM20.2188 40.7344V40.2344H19.5161L19.7464 40.8982L20.2188 40.7344ZM21.1943 40.7344L21.6733 40.5909L21.5665 40.2344H21.1943V40.7344ZM22.634 44.0867L23.6008 40.8787L22.6433 40.5901L21.6765 43.7981L22.634 44.0867ZM23.1221 41.2344H24.1006V40.2344H23.1221V41.2344ZM23.6284 40.57L22.143 44.8356L23.0874 45.1644L24.5728 40.8988L23.6284 40.57ZM22.6152 44.5H21.6982V45.5H22.6152V44.5ZM22.1706 44.8362L20.6911 40.5705L19.7464 40.8982L21.2258 45.1638L22.1706 44.8362ZM20.2188 41.2344H21.1943V40.2344H20.2188V41.2344ZM20.7154 40.8778L21.6763 44.0859L22.6342 43.7989L21.6733 40.5909L20.7154 40.8778ZM27.0713 43.1514V43.6514H27.5713V43.1514H27.0713ZM25.3838 43.1514V42.6514H24.8838V43.1514H25.3838ZM25.3838 44.2939H24.8838V44.7939H25.3838V44.2939ZM27.3643 44.2939H27.8643V43.7939H27.3643V44.2939ZM27.3643 45V45.5H27.8643V45H27.3643ZM24.5049 45H24.0049V45.5H24.5049V45ZM24.5049 40.7344V40.2344H24.0049V40.7344H24.5049ZM27.3584 40.7344H27.8584V40.2344H27.3584V40.7344ZM27.3584 41.4463V41.9463H27.8584V41.4463H27.3584ZM25.3838 41.4463V40.9463H24.8838V41.4463H25.3838ZM25.3838 42.4629H24.8838V42.9629H25.3838V42.4629ZM27.0713 42.4629H27.5713V41.9629H27.0713V42.4629ZM27.0713 42.6514H25.3838V43.6514H27.0713V42.6514ZM24.8838 43.1514V44.2939H25.8838V43.1514H24.8838ZM25.3838 44.7939H27.3643V43.7939H25.3838V44.7939ZM26.8643 44.2939V45H27.8643V44.2939H26.8643ZM27.3643 44.5H24.5049V45.5H27.3643V44.5ZM25.0049 45V40.7344H24.0049V45H25.0049ZM24.5049 41.2344H27.3584V40.2344H24.5049V41.2344ZM26.8584 40.7344V41.4463H27.8584V40.7344H26.8584ZM27.3584 40.9463H25.3838V41.9463H27.3584V40.9463ZM24.8838 41.4463V42.4629H25.8838V41.4463H24.8838ZM25.3838 42.9629H27.0713V41.9629H25.3838V42.9629ZM26.5713 42.4629V43.1514H27.5713V42.4629H26.5713ZM29.459 43.4385L29.904 43.2105L29.7647 42.9385H29.459V43.4385ZM28.7588 43.4385V42.9385H28.2588V43.4385H28.7588ZM28.7588 45V45.5H29.2588V45H28.7588ZM27.8799 45H27.3799V45.5H27.8799V45ZM27.8799 40.7344V40.2344H27.3799V40.7344H27.8799ZM30.8506 42.7529L30.4314 42.4804L30.4307 42.4815L30.8506 42.7529ZM30.2793 43.2158L30.074 42.7599L29.5881 42.9788L29.8374 43.4498L30.2793 43.2158ZM31.2021 44.959H31.7021V44.8348L31.644 44.725L31.2021 44.959ZM31.2021 45V45.5H31.7021V45H31.2021ZM30.2588 45L29.8138 45.2279L29.9531 45.5H30.2588V45ZM28.7588 42.7266H28.2588V43.2266H28.7588V42.7266ZM29.9805 42.5596L30.3189 42.9277L30.322 42.9247L29.9805 42.5596ZM29.9893 41.6191L29.6327 41.9697L29.6357 41.9727L29.9893 41.6191ZM28.7588 41.4463V40.9463H28.2588V41.4463H28.7588ZM29.459 42.9385H28.7588V43.9385H29.459V42.9385ZM28.2588 43.4385V45H29.2588V43.4385H28.2588ZM28.7588 44.5H27.8799V45.5H28.7588V44.5ZM28.3799 45V40.7344H27.3799V45H28.3799ZM27.8799 41.2344H29.4648V40.2344H27.8799V41.2344ZM29.4648 41.2344C29.9011 41.2344 30.1607 41.3322 30.3135 41.4577L30.9482 40.6849C30.5541 40.3612 30.0364 40.2344 29.4648 40.2344V41.2344ZM30.3135 41.4577C30.4522 41.5716 30.541 41.7363 30.541 42.0234H31.541C31.541 41.4903 31.3564 41.0202 30.9482 40.6849L30.3135 41.4577ZM30.541 42.0234C30.541 42.2418 30.4938 42.3843 30.4314 42.4804L31.2698 43.0254C31.4612 42.7309 31.541 42.3871 31.541 42.0234H30.541ZM30.4307 42.4815C30.3684 42.5778 30.2614 42.6755 30.074 42.7599L30.4846 43.6717C30.8089 43.5256 31.0828 43.3147 31.2705 43.0244L30.4307 42.4815ZM29.8374 43.4498L30.7603 45.1929L31.644 44.725L30.7212 42.9819L29.8374 43.4498ZM30.7021 44.959V45H31.7021V44.959H30.7021ZM31.2021 44.5H30.2588V45.5H31.2021V44.5ZM30.7038 44.7721L29.904 43.2105L29.014 43.6664L29.8138 45.2279L30.7038 44.7721ZM28.7588 43.2266H29.4678V42.2266H28.7588V43.2266ZM29.4678 43.2266C29.7702 43.2266 30.0778 43.1493 30.3189 42.9277L29.6421 42.1915C29.641 42.1925 29.6067 42.2266 29.4678 42.2266V43.2266ZM30.322 42.9247C30.5633 42.699 30.6621 42.4009 30.6621 42.0938H29.6621C29.6621 42.1414 29.6548 42.1663 29.6509 42.1765C29.6476 42.1848 29.6445 42.1892 29.6389 42.1944L30.322 42.9247ZM30.6621 42.0938C30.6621 41.7929 30.5728 41.4956 30.3428 41.2656L29.6357 41.9727C29.6362 41.9732 29.6621 41.9922 29.6621 42.0938H30.6621ZM30.3458 41.2686C30.1025 41.0211 29.7732 40.9463 29.4648 40.9463V41.9463C29.6291 41.9463 29.6495 41.9867 29.6327 41.9697L30.3458 41.2686ZM29.4648 40.9463H28.7588V41.9463H29.4648V40.9463ZM28.2588 41.4463V42.7266H29.2588V41.4463H28.2588ZM34.7764 41.4463V41.9463H35.2764V41.4463H34.7764ZM33.4697 41.4463V40.9463H32.9697V41.4463H33.4697ZM33.4697 45V45.5H33.9697V45H33.4697ZM32.5908 45H32.0908V45.5H32.5908V45ZM32.5908 41.4463H33.0908V40.9463H32.5908V41.4463ZM31.3018 41.4463H30.8018V41.9463H31.3018V41.4463ZM31.3018 40.7344V40.2344H30.8018V40.7344H31.3018ZM34.7764 40.7344H35.2764V40.2344H34.7764V40.7344ZM34.7764 40.9463H33.4697V41.9463H34.7764V40.9463ZM32.9697 41.4463V45H33.9697V41.4463H32.9697ZM33.4697 44.5H32.5908V45.5H33.4697V44.5ZM33.0908 45V41.4463H32.0908V45H33.0908ZM32.5908 40.9463H31.3018V41.9463H32.5908V40.9463ZM31.8018 41.4463V40.7344H30.8018V41.4463H31.8018ZM31.3018 41.2344H34.7764V40.2344H31.3018V41.2344ZM34.2764 40.7344V41.4463H35.2764V40.7344H34.2764ZM37.8467 43.1514V43.6514H38.3467V43.1514H37.8467ZM36.1592 43.1514V42.6514H35.6592V43.1514H36.1592ZM36.1592 44.2939H35.6592V44.7939H36.1592V44.2939ZM38.1396 44.2939H38.6396V43.7939H38.1396V44.2939ZM38.1396 45V45.5H38.6396V45H38.1396ZM35.2803 45H34.7803V45.5H35.2803V45ZM35.2803 40.7344V40.2344H34.7803V40.7344H35.2803ZM38.1338 40.7344H38.6338V40.2344H38.1338V40.7344ZM38.1338 41.4463V41.9463H38.6338V41.4463H38.1338ZM36.1592 41.4463V40.9463H35.6592V41.4463H36.1592ZM36.1592 42.4629H35.6592V42.9629H36.1592V42.4629ZM37.8467 42.4629H38.3467V41.9629H37.8467V42.4629ZM37.8467 42.6514H36.1592V43.6514H37.8467V42.6514ZM35.6592 43.1514V44.2939H36.6592V43.1514H35.6592ZM36.1592 44.7939H38.1396V43.7939H36.1592V44.7939ZM37.6396 44.2939V45H38.6396V44.2939H37.6396ZM38.1396 44.5H35.2803V45.5H38.1396V44.5ZM35.7803 45V40.7344H34.7803V45H35.7803ZM35.2803 41.2344H38.1338V40.2344H35.2803V41.2344ZM37.6338 40.7344V41.4463H38.6338V40.7344H37.6338ZM38.1338 40.9463H36.1592V41.9463H38.1338V40.9463ZM35.6592 41.4463V42.4629H36.6592V41.4463H35.6592ZM36.1592 42.9629H37.8467V41.9629H36.1592V42.9629ZM37.3467 42.4629V43.1514H38.3467V42.4629H37.3467ZM40.2344 43.4385L40.6794 43.2105L40.54 42.9385H40.2344V43.4385ZM39.5342 43.4385V42.9385H39.0342V43.4385H39.5342ZM39.5342 45V45.5H40.0342V45H39.5342ZM38.6553 45H38.1553V45.5H38.6553V45ZM38.6553 40.7344V40.2344H38.1553V40.7344H38.6553ZM41.626 42.7529L41.2068 42.4804L41.2061 42.4815L41.626 42.7529ZM41.0547 43.2158L40.8494 42.7599L40.3634 42.9788L40.6128 43.4498L41.0547 43.2158ZM41.9775 44.959H42.4775V44.8348L42.4194 44.725L41.9775 44.959ZM41.9775 45V45.5H42.4775V45H41.9775ZM41.0342 45L40.5892 45.2279L40.7285 45.5H41.0342V45ZM39.5342 42.7266H39.0342V43.2266H39.5342V42.7266ZM40.7559 42.5596L41.0943 42.9277L41.0974 42.9247L40.7559 42.5596ZM40.7646 41.6191L40.4081 41.9697L40.4111 41.9727L40.7646 41.6191ZM39.5342 41.4463V40.9463H39.0342V41.4463H39.5342ZM40.2344 42.9385H39.5342V43.9385H40.2344V42.9385ZM39.0342 43.4385V45H40.0342V43.4385H39.0342ZM39.5342 44.5H38.6553V45.5H39.5342V44.5ZM39.1553 45V40.7344H38.1553V45H39.1553ZM38.6553 41.2344H40.2402V40.2344H38.6553V41.2344ZM40.2402 41.2344C40.6765 41.2344 40.9361 41.3322 41.0889 41.4577L41.7236 40.6849C41.3295 40.3612 40.8118 40.2344 40.2402 40.2344V41.2344ZM41.0889 41.4577C41.2276 41.5716 41.3164 41.7363 41.3164 42.0234H42.3164C42.3164 41.4903 42.1318 41.0202 41.7236 40.6849L41.0889 41.4577ZM41.3164 42.0234C41.3164 42.2418 41.2692 42.3843 41.2068 42.4804L42.0452 43.0254C42.2366 42.7309 42.3164 42.3871 42.3164 42.0234H41.3164ZM41.2061 42.4815C41.1438 42.5778 41.0368 42.6755 40.8494 42.7599L41.26 43.6717C41.5843 43.5256 41.8582 43.3147 42.0459 43.0244L41.2061 42.4815ZM40.6128 43.4498L41.5356 45.1929L42.4194 44.725L41.4966 42.9819L40.6128 43.4498ZM41.4775 44.959V45H42.4775V44.959H41.4775ZM41.9775 44.5H41.0342V45.5H41.9775V44.5ZM41.4792 44.7721L40.6794 43.2105L39.7894 43.6664L40.5892 45.2279L41.4792 44.7721ZM39.5342 43.2266H40.2432V42.2266H39.5342V43.2266ZM40.2432 43.2266C40.5456 43.2266 40.8532 43.1493 41.0943 42.9277L40.4175 42.1915C40.4164 42.1925 40.3821 42.2266 40.2432 42.2266V43.2266ZM41.0974 42.9247C41.3387 42.699 41.4375 42.4009 41.4375 42.0938H40.4375C40.4375 42.1414 40.4302 42.1663 40.4263 42.1765C40.423 42.1848 40.4199 42.1892 40.4143 42.1944L41.0974 42.9247ZM41.4375 42.0938C41.4375 41.7929 41.3482 41.4956 41.1182 41.2656L40.4111 41.9727C40.4116 41.9732 40.4375 41.9922 40.4375 42.0938H41.4375ZM41.1212 41.2686C40.8779 41.0211 40.5486 40.9463 40.2402 40.9463V41.9463C40.4045 41.9463 40.4249 41.9867 40.4081 41.9697L41.1212 41.2686ZM40.2402 40.9463H39.5342V41.9463H40.2402V40.9463ZM39.0342 41.4463V42.7266H40.0342V41.4463H39.0342Z" fill="#F1F1F1"/>
</svg>
